<svg width="200" height="155" viewBox="0 0 200 155" fill="none" xmlns="http://www.w3.org/2000/svg">
<g clip-path="url(#clip0_1465_2975)">
<path d="M49.0846 0C22.6019 0 1.13326 19.0892 1.13326 42.6417C1.13326 49.5844 3.72318 56.2026 4.32202 63.1103C5.20049 73.2442 4.76375 83.646 2.72757 93.6542C2.68682 93.8547 2.64462 94.0647 2.60084 94.2857C-0.239526 108.626 -0.0377228 120.167 0.0326126 122.865C0.402563 136.958 0.656297 146.524 7.37023 150.099C10.9229 151.99 15.9552 152.029 19.355 150.099C22.9963 148.031 23.7636 144.277 25.225 138.555C28.0164 127.628 30.3277 118.575 34.5193 110.424C38.424 102.832 43.9705 94.7799 52.3519 90.0515C55.7259 88.148 59.5706 87.0909 63.2209 85.6191C66.7922 84.1792 70.1702 82.4056 73.2788 80.3479C87.4274 70.982 97.0389 58.1025 97.0389 42.6417C97.039 19.0892 75.5703 0 49.0846 0ZM75.1913 62.2519C69.3487 69.6405 59.8526 74.4484 49.1335 74.4484C47.7425 74.4484 46.3697 74.3672 45.0245 74.2103C29.134 72.353 16.8641 59.8689 16.9711 44.7768C17.0849 28.7248 31.3842 15.6119 48.8997 15.4978C66.7701 15.3814 81.2968 28.6224 81.2968 44.9727C81.2968 51.4282 79.0313 57.3962 75.1913 62.2518V62.2519Z" fill="#FE5200"/>
<path d="M88.6687 102.17C84.2461 98.2603 77.6004 96.3042 68.7316 96.3042C59.5065 96.3042 51.8563 100.154 45.7838 107.854C40.37 114.699 37.6644 122.277 37.6644 130.588C37.6644 137.653 40.4844 143.409 46.127 147.858C51.412 152.013 57.8158 154.091 65.3384 154.091C74.5885 154.091 82.0861 150.192 87.8299 142.394C92.8099 135.647 95.3013 128.119 95.3013 119.807C95.3013 111.961 93.09 106.083 88.6687 102.17ZM53.0353 139.146C52.9149 139.023 52.7966 138.899 52.6805 138.773C48.4344 134.178 47.9295 128.613 49.5417 123.123C50.4701 119.961 52.0129 116.974 54.1703 114.161C57.4439 109.883 62.3213 106.241 68.7317 106.241C68.7633 106.241 68.7948 106.241 68.8264 106.241C74.3272 106.251 79.3784 108.866 81.7885 113.002C81.8659 113.134 81.9421 113.268 82.0171 113.403C84.1207 117.191 84.7365 121.435 83.9353 125.558C83.1849 129.419 81.6496 132.978 79.3293 136.235C76.968 139.549 72.5907 143.865 67.6458 144.212C62.0748 144.603 56.5843 142.764 53.0355 139.146H53.0353Z" fill="#FE5200"/>
<path d="M149.757 115.198C149.427 119.9 146.872 122.251 142.096 122.251C137.466 122.251 135.151 120.254 135.151 116.258C134.998 113.66 131.826 111.979 128.939 112.949C124.884 114.311 121.606 116.481 119.106 119.458C117.792 121.023 117.129 122.906 117.134 124.818L117.183 145.439C117.183 147.191 116.466 148.643 115.033 149.795C113.6 150.948 111.781 151.524 109.577 151.524C107.298 151.524 105.534 150.909 104.285 149.68C103.109 148.574 102.521 147.161 102.521 145.439V115.244C102.521 114.292 102.558 112.87 102.632 110.98C102.705 109.09 102.742 107.669 102.742 106.716C102.742 104.995 103.357 103.558 104.588 102.406C105.819 101.253 107.573 100.677 109.852 100.677C112.183 100.677 113.973 101.249 115.224 102.393C116.975 103.994 119.842 104.289 122.134 103.273C127.282 100.989 132.834 99.8472 138.789 99.8472C146.137 99.8472 149.812 103.935 149.812 112.109C149.812 113.677 149.793 114.707 149.757 115.198Z" fill="#FE5200"/>
<path d="M194.039 115.865C191.646 115.865 189.926 115.274 188.881 114.089C187.691 112.742 185.756 111.999 183.754 111.998H183.711C175.455 111.998 171.327 112.943 171.327 114.834C171.327 115.951 173.811 117.455 178.778 119.346C185.561 121.954 190.151 123.988 192.549 125.449C197.516 128.458 200 131.853 200 135.635C200 140.563 197.259 144.302 191.778 146.852C187.359 148.886 181.929 149.903 175.489 149.903C170.933 149.903 166.771 149.315 163.003 148.141C157.864 146.537 155.295 144.173 155.295 141.05C155.295 138.185 157.333 136.752 161.41 136.752C162.985 136.752 165.264 137.168 168.244 137.998C171.224 138.83 173.519 139.245 175.13 139.245C182.084 139.245 185.578 138.07 185.612 135.721C185.612 134.26 183.197 132.641 178.367 130.864C171.31 128.258 166.788 126.381 164.801 125.234C159.971 122.398 157.556 118.946 157.556 114.877C157.556 109.118 161.204 105.236 168.501 103.23C172.783 102.056 179.292 101.468 188.027 101.468C191.452 101.468 193.988 101.841 195.632 102.586C197.893 103.589 199.024 105.437 199.024 108.13C199.024 113.287 197.362 115.865 194.039 115.865Z" fill="#FE5200"/>
</g>
<defs>
<clipPath id="clip0_1465_2975">
<rect width="200" height="154.091" fill="white"/>
</clipPath>
</defs>
</svg>
