<svg width="403" height="372" viewBox="0 0 403 372" fill="none" xmlns="http://www.w3.org/2000/svg">
<g clip-path="url(#clip0_1887_1054)">
<path d="M403 192.764C400.425 195.292 401.29 198.812 400.814 201.779C399.064 212.664 395.888 223.044 391.131 232.924C388.304 238.797 384.742 244.292 380.563 249.323C379.306 250.836 379.509 251.306 381.342 251.766C383.661 252.35 386.072 252.901 388.161 254.001C392.705 256.394 394.88 261.209 393.438 266.082C387.332 286.717 383.027 307.864 376.164 328.266C371.448 342.287 361.942 352.928 349.716 360.985C336.374 369.777 321.399 372.727 305.69 371.205C299.446 370.6 293.327 368.511 287.205 366.893C270.213 362.405 253.203 357.98 236.294 353.2C222.838 349.397 208.84 347.267 196.266 340.64C185.533 334.983 177.191 326.801 170.817 316.544C163.589 304.913 160.245 292.201 160.728 278.57C161.036 269.867 163.892 261.63 166.173 253.306C167.274 249.288 168.227 245.23 169.26 241.136C158.623 238.322 147.947 235.652 137.369 232.636C131.272 230.898 126.639 227.14 123.585 221.374C120.372 215.305 116.819 209.414 113.364 203.476C112.147 201.383 110.653 199.732 108.058 199.039C76.8981 190.742 45.8006 182.209 14.5909 174.106C8.29108 172.47 3.61155 169.805 0.926442 163.744C-0.211781 161.176 -0.149905 158.524 0.299053 156.131C1.48188 149.811 2.76544 143.42 5.56855 137.578C8.46087 131.549 15.8327 128.488 22.1699 130.163C34.758 133.492 47.3547 136.793 59.9543 140.079C65.3605 141.489 66.1073 142.356 66.398 147.877C64.3878 152.166 62.3099 153.067 57.957 151.882C53.6747 150.715 49.3347 149.761 45.0207 148.713C36.5826 145.857 27.9143 143.833 19.2934 141.649C17.3177 141.148 15.9838 142.194 15.4658 144.032C14.2498 148.346 13.0555 152.672 12.077 157.043C11.6352 159.017 11.9115 161.085 14.3621 161.779C22.9369 164.208 31.4728 166.792 40.2318 168.519C40.9096 169.686 42.1313 169.077 43.0767 169.336C66.8513 175.863 90.623 182.403 114.455 188.716C117.476 189.516 119.503 190.869 121.002 193.466C125.105 200.575 129.313 207.624 133.414 214.734C135.291 217.991 137.848 220.645 141.406 221.635C150.834 224.259 160.416 226.342 169.814 229.062C172.198 229.751 172.781 229.055 173.238 227.291C174.767 221.402 176.224 215.497 177.724 209.544C169.29 207.306 160.812 205.131 152.388 202.753C150.877 202.327 149.67 201.217 148.782 199.552C145.53 193.449 141.932 187.531 138.546 181.497C135.427 175.935 132.144 171.316 124.964 169.736C111.579 166.788 98.4366 162.717 85.2341 158.971C80.4639 157.617 79.5833 156.093 79.7243 151.128C81.6928 147.724 84.2599 146.71 88.2833 147.839C102.656 151.871 117.11 155.619 131.56 159.367C140.552 161.701 144.781 168.814 148.91 176.127C151.664 181.005 154.536 185.815 157.311 190.682C157.698 191.36 157.971 191.914 158.842 192.161C166.002 194.196 173.132 196.334 180.96 197.767C178.409 188.352 177.649 179.246 177.96 170.021C178.167 163.86 179.235 157.81 180.463 151.82C181.15 148.476 183.904 146.891 187.419 147.006C190.579 148.468 193.105 150.535 192.118 154.41C190.7 159.981 190.165 165.612 190.066 171.326C189.906 180.549 190.513 189.614 193.643 198.451C194.676 201.366 196.325 202.365 198.999 203.03C205.664 204.684 212.27 206.572 218.9 208.368C230.908 211.567 242.915 214.764 255.759 218.185C251.57 211.981 247.368 206.813 244.539 200.783C244.205 200.071 243.448 199.825 242.561 199.793C235.677 199.546 229.745 196.744 224.13 192.971C218.013 188.86 215.738 182.185 218.403 175.53C221.513 167.763 226.513 161.478 233.42 156.786C234.582 155.997 235.285 155.446 235.482 153.903C236.39 146.796 237.137 139.632 238.691 132.654C239.912 127.176 238.906 122.528 235.998 118.02C231.817 109.878 215.592 106.73 208.054 114.938C204.16 119.178 202.274 124.308 200.087 129.369C198.482 133.08 195.365 134.87 191.998 133.89C188.632 132.094 187.063 129.088 188.509 126.046C191.228 120.325 193.411 114.379 197.281 109.159C202.231 102.477 209.086 99.2729 216.723 98.5203C229.544 97.2555 240.142 101.833 246.911 113.362C251.239 120.735 252.108 128.631 249.989 136.942C249.079 140.511 248.66 144.203 248.001 147.835C247.503 150.576 249.347 150.584 251.052 150.228C260.195 148.324 268.699 150.143 276.966 154.154C282.633 156.902 286.725 160.963 287.146 167.332C287.458 172.076 285.312 176.488 282.682 180.462C277.977 187.572 271.582 192.711 263.515 196.384C272.734 201.579 281.88 205.893 292.53 206.175C303.177 206.457 313.41 205.29 323.262 200.758C338.213 193.879 349.433 183.303 355.648 168.107C360.595 156.01 368.171 150.24 378.74 150.386C390.396 150.549 399.881 157.928 402.257 169.555C402.365 170.08 402.375 170.574 402.994 170.738V192.765L403 192.764ZM257.451 185.692C264.042 185.165 273.893 175.066 275.324 168.879C275.563 167.845 275.428 167.113 274.641 166.455C269.422 162.097 258.454 159.757 251.169 162.173C240.786 164.234 233.436 169.951 229.528 179.937C228.924 181.483 229.293 182.111 230.6 183.038C239.078 189.059 248.004 189.837 257.451 185.692ZM268.006 212.079C267.471 211.642 266.924 211.397 266.328 211.98C266.76 212.15 267.191 212.318 267.623 212.488C272.416 218.042 277.565 223.372 284.635 225.752C293.242 228.65 302.088 230.856 310.992 232.74C311.971 233.058 312.936 233.416 313.928 233.685C329.313 237.876 344.77 241.818 360.051 246.361C365.568 248.002 368.587 245.527 371.553 241.89C372.686 240.499 373.651 238.968 374.672 237.487C387.41 219.022 390.727 198.041 391.032 176.253C391.476 174.78 390.737 173.483 390.481 172.099C389.393 166.204 385.725 162.639 379.529 162.121C375.118 161.751 370.377 164.121 368.093 169.693C364.841 177.63 360.703 185.109 355.035 191.539C346.516 201.206 336.433 208.754 324.182 213.282C314.775 216.759 305.088 219.086 295.142 218.556C285.826 218.06 276.607 216.104 268.007 212.081L268.006 212.079ZM221.953 336.785C222.063 337.254 222.332 337.49 222.832 337.382C224.805 337.944 226.771 338.536 228.754 339.064C250.839 344.951 272.953 350.73 295.001 356.75C304.888 359.45 314.705 361.346 324.924 358.706C343.432 353.923 357.318 343.48 364.71 325.572C368.338 316.784 369.895 307.299 372.497 298.163C373.176 295.777 372.058 295.424 370.678 295.052C358.839 291.847 346.982 288.706 335.118 285.595C329.907 284.229 327.735 282.202 328.238 277.027C329.984 274.902 331.194 272.644 335.006 273.548C347.848 276.594 360.53 280.207 373.226 283.774C375.382 284.38 376.474 283.643 376.969 281.871C378.403 276.732 379.631 271.536 381.031 266.387C381.526 264.567 381.329 263.866 379.147 263.449C374.682 262.594 370.327 261.167 365.925 259.983C345.973 254.615 326.022 249.251 306.071 243.885C285.63 238.388 265.22 232.779 244.736 227.453C236.416 225.29 228.256 222.451 219.706 221.21C210.582 217.739 200.936 216.114 191.641 213.242C189.781 212.668 188.617 213.802 188.325 215.455C187.614 219.477 186.265 223.306 185.162 227.213C183.657 232.541 183.695 232.766 189.081 234.153C197.686 236.369 206.112 239.274 214.876 240.87C215.43 241.991 216.502 241.354 217.318 241.577C247.911 249.947 278.477 258.408 309.132 266.549C313.401 267.682 314.742 269.986 314.965 273.785C313.326 276.889 310.912 279.068 307.261 278.193C300.94 276.676 294.728 274.71 288.448 273.014C266.996 267.221 245.554 261.386 224.057 255.758C219.759 254.632 215.581 252.867 211.052 252.686C201.908 249.252 192.233 247.692 182.959 244.711C181.341 244.191 180.468 244.997 180.049 246.761C179.075 250.875 177.822 254.922 176.722 259.007C173.63 270.501 170.848 281.907 174.008 294.017C180.223 317.833 198.875 333.292 221.983 336.819L221.953 336.777V336.785Z" fill="#010101"/>
<path d="M403 43.2885C400.928 44.7015 401.342 47.1521 400.735 49.1105C398.42 56.5788 394.178 62.7591 388.321 67.7394C381.353 73.6636 373.376 73.0808 366.453 66.0486C358.637 58.1069 354.353 48.5939 354.124 37.2031C353.879 25.0208 357.493 14.5811 366.07 5.80768C373.439 -1.73106 381.964 -2.03037 389.974 5.49111C395.923 11.0772 399.84 17.7828 401.505 25.8252C401.734 26.9288 401.821 28.3433 402.998 29.1276V43.2885H403ZM377.848 59.6423C380.025 59.7387 381.351 58.2825 382.785 56.9817C391.244 49.3163 393.557 31.8861 387.37 21.5557C387.484 20.5441 386.845 19.8592 386.332 19.1052C380.022 9.82096 377.081 9.9073 370.662 18.9627C362.64 30.2802 364.449 51.1539 377.848 59.6423Z" fill="#010101"/>
<path d="M79.7278 151.127C79.5853 156.093 80.4674 157.619 85.2376 158.971C98.4401 162.717 111.582 166.789 124.967 169.736C132.146 171.318 135.43 175.935 138.55 181.497C141.934 187.53 145.533 193.448 148.785 199.552C149.672 201.216 150.879 202.326 152.391 202.753C160.814 205.13 169.293 207.306 177.727 209.544C176.229 215.497 174.77 221.404 173.242 227.291C172.784 229.053 172.202 229.751 169.817 229.062C160.418 226.344 150.837 224.26 141.409 221.635C137.852 220.645 135.295 217.991 133.417 214.734C129.316 207.624 125.11 200.576 121.006 193.466C119.507 190.869 117.481 189.518 114.459 188.716C90.6265 182.402 66.8548 175.862 43.0802 169.336C42.1362 169.077 40.9145 169.686 40.2354 168.519C40.408 167.379 40.4857 166.215 40.7678 165.103C42.1564 159.632 43.6011 154.175 45.0242 148.714C49.3383 149.762 53.6796 150.716 57.9605 151.883C62.312 153.069 64.3898 152.168 66.4015 147.878C70.8436 148.96 75.2871 150.043 79.7292 151.125L79.7278 151.127Z" fill="#B7C4CE"/>
<path d="M192.006 133.889C195.372 134.869 198.49 133.079 200.094 129.367C202.282 124.308 204.168 119.178 208.062 114.936C215.599 106.728 231.824 109.877 236.005 118.018C233.988 118.411 233.012 119.967 232.077 121.555C225.258 133.132 221.109 145.714 218.023 158.707C214.985 171.493 213.864 184.342 216.555 197.339C217.317 201.019 218.122 204.692 218.906 208.368C212.277 206.574 205.669 204.684 199.005 203.03C196.332 202.366 194.682 201.368 193.649 198.451C190.518 189.614 189.912 180.549 190.072 171.326C190.171 165.611 190.707 159.981 192.124 154.41C193.111 150.533 190.586 148.468 187.426 147.006C188.953 142.633 190.481 138.262 192.007 133.889H192.006Z" fill="#FCA62F"/>
<path d="M242.766 35.4202C261.653 34.1856 280.79 50.9236 283.552 69.0172C284.23 73.4579 284.673 77.8971 283.904 82.1334C282.49 89.9096 276.478 94.0279 267.683 94.4366C248.859 95.31 230.609 80.5476 226.106 62.7447C224.873 57.871 223.919 52.9698 225.064 47.6442C226.703 40.0292 231.406 35.4072 239.228 35.4202C240.408 35.4216 241.586 35.4202 242.766 35.4202ZM252.012 48.3292C248.797 46.9334 245.392 47.2255 242.024 47.224C237.602 47.224 235.661 49.2386 236.235 53.5728C238.054 67.2904 245.728 76.5416 258.448 81.4758C262.051 82.8745 266.119 83.676 270.049 81.8873C272.421 81.729 272.288 80.0972 272.464 78.2957C273.825 64.4053 262.828 52.1352 252.01 48.3277L252.012 48.3292Z" fill="#010101"/>
<path d="M362.055 80.2641C372.832 79.1691 383.534 89.3268 382.685 101.734C382.013 111.54 373.169 120.053 362.676 120.508C351.107 121.009 342.903 110.019 342.241 101.807C341.308 90.2261 351.847 78.9748 362.055 80.2641ZM370.747 100.552C370.834 95.1387 368.078 92.1212 362.993 92.0637C357.522 92.0018 354.309 94.7531 354.238 99.5564C354.163 104.727 357.523 108.504 362.275 108.593C366.937 108.679 370.674 105.134 370.747 100.552Z" fill="#010101"/>
<path d="M321.435 29.9147C333.862 30.6644 342.049 37.7441 342.223 49.9437C342.396 62.0929 333.474 70.6633 321.707 70.5986C310.042 70.5353 301.908 62.1144 301.698 50.2271C301.505 39.3514 309.488 30.509 321.435 29.9147ZM313.31 49.9652C313.292 54.0203 318.083 59.0408 321.951 59.0178C325.857 58.9948 330.493 54.3253 330.657 50.2487C330.838 45.726 326.783 41.7444 321.968 41.7171C317.607 41.6912 313.33 45.7663 313.31 49.9652Z" fill="#010101"/>
<path d="M179.893 51.1553C192.591 50.2429 200.644 60.4495 200.637 70.7252C200.63 81.7204 192.445 90.7197 180.28 91.229C169.456 91.6823 159.94 81.7894 159.864 70.7281C159.803 61.9748 167.821 49.653 179.893 51.1553ZM179.829 79.477C184.529 79.5734 188.951 75.3371 188.903 70.7856C188.857 66.309 185.755 63.2296 181.547 62.9059C175.284 62.4238 172.529 64.565 171.777 70.695C171.256 74.9342 175.701 79.3935 179.829 79.477Z" fill="#010101"/>
<path d="M333.728 107.626C334.631 128.209 327.17 145.09 315.898 160.638C314.76 162.208 313.055 163.353 311.794 164.849C309.502 167.569 306.728 167.561 304.214 165.763C301.58 163.88 300.566 161.066 302.688 158.072C306.225 153.08 310.194 148.425 313.179 143.012C318.298 133.726 321.632 123.966 321.936 113.323C322.192 104.311 322.208 95.31 318.894 86.6647C318.139 84.6918 320.827 80.798 322.889 80.2699C326.302 79.395 329.732 81.0124 330.623 84.2199C332.829 92.15 334.435 100.179 333.728 107.626Z" fill="#010101"/>
<path d="M357.448 136.269C356.608 144.354 353.445 151.706 349.828 158.861C346.871 164.71 343.086 170.122 338.581 174.823C330.225 183.543 320.025 189.499 308.358 192.685C304.024 193.868 301.209 191.932 300.183 187.872C299.557 185.397 301.729 182.514 305.328 181.399C327.767 174.445 339.953 158.355 345.672 136.404C346.201 134.374 346.334 131.96 348.455 130.711C350.574 129.464 352.757 129.465 355.031 130.576C357.563 131.815 357.539 133.952 357.448 136.269Z" fill="#010101"/>
<path d="M175.026 106.813C174.078 111.542 173.036 116.254 172.214 121.006C171.626 124.406 171.37 127.862 170.898 131.284C169.814 139.144 170.915 146.998 170.962 154.852C170.981 157.898 170.024 159.953 166.984 160.466C163.814 161.002 161.032 160.439 159.98 156.732C159.454 154.879 159.015 153.064 159.068 151.09C159.229 145.068 158.323 139.112 158.944 133.002C159.913 123.468 160.972 114.035 163.796 104.83C164.988 100.949 167.592 100.182 170.939 100.769C174.194 101.341 175.347 103.603 175.025 106.816L175.026 106.813Z" fill="#010101"/>
<path d="M211.051 252.693C215.581 252.874 219.759 254.64 224.057 255.765C245.554 261.391 266.996 267.228 288.448 273.021C294.727 274.716 300.939 276.683 307.261 278.2C310.911 279.075 313.326 276.896 314.965 273.792C319.391 274.869 323.541 277.079 328.242 277.031C327.739 282.204 329.912 284.232 335.122 285.599C346.986 288.71 358.842 291.85 370.682 295.056C372.062 295.43 373.18 295.783 372.501 298.167C369.899 307.303 368.342 316.789 364.714 325.576C357.322 343.484 343.436 353.927 324.928 358.71C314.709 361.351 304.892 359.454 295.005 356.754C272.957 350.734 250.843 344.955 228.758 339.068C226.775 338.54 224.809 337.949 222.837 337.386C222.543 337.187 222.249 336.987 221.957 336.789L221.988 336.829C221.154 333.321 217.973 331.541 216.017 328.854C204.385 312.873 200.248 295.447 205.147 276.106C207.124 268.304 209.086 260.498 211.056 252.694L211.051 252.693Z" fill="#6D81D5"/>
<path d="M328.241 277.03C323.54 277.076 319.39 274.866 314.964 273.791C314.741 269.992 313.4 267.688 309.13 266.554C278.477 258.416 247.909 249.953 217.317 241.582C216.501 241.359 215.429 241.997 214.875 240.876C215.796 234.153 218.287 227.816 219.704 221.215C228.256 222.457 236.416 225.296 244.735 227.459C265.22 232.783 285.63 238.394 306.07 243.891C326.021 249.255 345.974 254.621 365.923 259.988C370.325 261.173 374.681 262.6 379.146 263.455C381.327 263.872 381.525 264.573 381.03 266.393C379.631 271.542 378.402 276.738 376.967 281.876C376.472 283.649 375.38 284.386 373.225 283.78C360.529 280.213 347.847 276.6 335.004 273.553C331.194 272.65 329.982 274.906 328.237 277.033L328.241 277.03Z" fill="#D5DAF2"/>
<path d="M211.052 252.693C209.084 260.496 207.121 268.303 205.144 276.105C200.244 295.446 204.381 312.872 216.014 328.853C217.969 331.539 221.149 333.32 221.984 336.828C198.876 333.301 180.224 317.842 174.009 294.026C170.849 281.915 173.63 270.51 176.723 259.016C177.822 254.93 179.075 250.884 180.05 246.77C180.468 245.004 181.342 244.198 182.959 244.719C192.233 247.702 201.909 249.262 211.052 252.694V252.693Z" fill="#5169CC"/>
<path d="M268.01 212.075C276.607 216.104 285.826 218.06 295.142 218.556C305.088 219.086 314.775 216.757 324.182 213.282C336.433 208.755 346.516 201.206 355.035 191.539C360.703 185.107 364.841 177.63 368.093 169.693C370.375 164.123 375.117 161.753 379.529 162.121C385.725 162.641 389.393 166.204 390.481 172.099C390.735 173.483 391.475 174.781 391.032 176.253C382.84 176.579 377.305 180.765 374.279 188.2C371.905 194.033 369.028 199.543 365.235 204.569C354.935 218.219 341.462 226.86 324.751 230.662C320.186 231.701 315.502 231.574 310.992 232.741C302.088 230.858 293.242 228.652 284.635 225.754C277.565 223.374 272.418 218.044 267.623 212.489C267.755 212.356 267.885 212.216 268.01 212.075Z" fill="#F88824"/>
<path d="M310.992 232.741C315.502 231.574 320.184 231.701 324.752 230.662C341.462 226.86 354.934 218.219 365.235 204.569C369.027 199.544 371.905 194.033 374.279 188.2C377.306 180.764 382.84 176.579 391.032 176.253C390.728 198.039 387.41 219.022 374.672 237.487C373.651 238.968 372.688 240.5 371.553 241.89C368.587 245.528 365.568 248.003 360.051 246.361C344.772 241.818 329.313 237.876 313.928 233.685C312.936 233.415 311.971 233.057 310.992 232.74V232.741Z" fill="#FCA62F"/>
<path d="M218.905 208.368C218.12 204.692 217.317 201.019 216.554 197.339C213.863 184.342 214.983 171.493 218.022 158.707C221.108 145.714 225.258 133.132 232.076 121.555C233.012 119.968 233.987 118.411 236.005 118.018C238.913 122.527 239.92 127.174 238.698 132.653C237.143 139.63 236.397 146.795 235.489 153.902C235.292 155.446 234.589 155.996 233.427 156.784C226.52 161.477 221.518 167.762 218.41 175.528C215.745 182.183 218.022 188.859 224.137 192.97C229.752 196.744 235.684 199.544 242.568 199.792C243.454 199.824 244.212 200.07 244.546 200.782C247.375 206.811 251.576 211.98 255.766 218.183C242.923 214.763 230.915 211.564 218.907 208.367L218.905 208.368Z" fill="#F7C42D"/>
<path d="M219.706 221.215C218.289 227.816 215.798 234.153 214.877 240.876C206.112 239.28 197.686 236.373 189.081 234.159C183.695 232.772 183.656 232.547 185.161 227.219C186.265 223.312 187.613 219.483 188.324 215.461C188.616 213.808 189.781 212.674 191.641 213.248C200.935 216.12 210.583 217.746 219.706 221.215Z" fill="#A3AFE3"/>
<path d="M45.021 148.717C43.5964 154.18 42.1532 159.636 40.7646 165.106C40.4825 166.218 40.4048 167.382 40.2321 168.522C31.4731 166.796 22.9372 164.211 14.3624 161.782C11.9118 161.088 11.6355 159.02 12.0773 157.046C13.0558 152.674 14.2501 148.349 15.4661 144.035C15.9841 142.199 17.318 141.151 19.2937 141.652C27.916 143.836 36.5829 145.861 45.021 148.717Z" fill="#9FABB8"/>
<path d="M251.17 162.174C258.456 159.758 269.422 162.097 274.643 166.457C275.43 167.114 275.566 167.847 275.326 168.88C273.894 175.068 264.043 185.166 257.453 185.693C255.139 184.255 252.742 182.932 250.527 181.354C246.624 178.576 245.269 174.909 246.866 170.866C248.05 167.87 249.718 165.065 251.17 162.174Z" fill="#27D0B2"/>
<path d="M251.17 162.174C249.718 165.064 248.05 167.87 246.866 170.866C245.269 174.908 246.624 178.574 250.527 181.354C252.741 182.932 255.139 184.255 257.453 185.693C248.006 189.839 239.081 189.06 230.601 183.041C229.295 182.113 228.925 181.484 229.529 179.94C233.438 169.953 240.788 164.236 251.17 162.174Z" fill="#20B59E"/>
<path d="M267.623 212.489C267.192 212.32 266.76 212.151 266.328 211.981C266.924 211.399 267.471 211.643 268.009 212.078C267.885 212.216 267.756 212.354 267.623 212.489Z" fill="#F88824"/>
<path d="M221.953 336.786C222.247 336.984 222.539 337.185 222.832 337.383C222.332 337.49 222.062 337.254 221.953 336.786Z" fill="#5169CC"/>
<path d="M377.849 59.6423C364.449 51.1538 362.64 30.2802 370.662 18.9627C377.082 9.90729 380.023 9.82095 386.333 19.1052C386.845 19.8592 387.484 20.5427 387.369 21.5557C386.883 22.3097 386.474 23.1285 385.898 23.8048C381.344 29.1563 378.253 35.2288 377.302 42.2078C376.509 48.0198 377.046 53.849 377.847 59.6423H377.849Z" fill="#20B59E"/>
<path d="M377.848 59.6423C377.045 53.849 376.51 48.0198 377.303 42.2078C378.256 35.2288 381.347 29.1563 385.899 23.8048C386.475 23.1285 386.884 22.3097 387.37 21.5557C393.559 31.8861 391.244 49.3148 382.787 56.9817C381.352 58.2825 380.026 59.7387 377.85 59.6423H377.848Z" fill="#27D0B2"/>
<path d="M270.051 81.8873C266.12 83.6759 262.054 82.873 258.45 81.4757C245.73 76.5415 238.056 67.2904 236.237 53.5727C235.663 49.2386 237.603 47.2226 242.026 47.224C245.395 47.224 248.798 46.9319 252.014 48.3291C251.299 61.0884 256.935 70.6993 266.726 78.3417C267.966 79.3101 269.817 79.9015 270.053 81.8873H270.051Z" fill="#20B59E"/>
<path d="M270.051 81.8873C269.815 79.9015 267.964 79.3101 266.724 78.3417C256.933 70.6994 251.297 61.0885 252.012 48.3292C262.83 52.1367 273.827 64.4053 272.465 78.2957C272.288 80.0972 272.421 81.729 270.051 81.8873Z" fill="#27D0B2"/>
<path d="M370.747 100.552C370.673 105.132 366.936 108.679 362.274 108.593C357.523 108.504 354.163 104.727 354.238 99.5564C354.307 94.7531 357.521 92.0032 362.992 92.0637C368.076 92.1212 370.833 95.1387 370.747 100.552Z" fill="#F93A81"/>
<path d="M313.31 49.9653C313.328 45.7664 317.606 41.6912 321.968 41.7171C326.783 41.7459 330.838 45.7261 330.656 50.2487C330.494 54.3253 325.857 58.9948 321.951 59.0178C318.083 59.0408 313.291 54.0203 313.31 49.9653Z" fill="#F93A81"/>
<path d="M179.827 79.4771C175.699 79.3922 171.256 74.9328 171.775 70.695C172.528 64.565 175.282 62.4253 181.546 62.9059C185.753 63.2297 188.856 66.3105 188.902 70.7857C188.949 75.3372 184.526 79.5735 179.827 79.4771Z" fill="#F93A81"/>
</g>
<defs>
<clipPath id="clip0_1887_1054">
<rect width="403" height="371.587" fill="white"/>
</clipPath>
</defs>
</svg>
